HIERARCHY
ROOT Hips
{
  OFFSET 13.6774 106.653 -34.4427
  CHANNELS 6 Xposition Yposition Zposition Zrotation Xrotation Yrotation
  JOINT ToSpine
  {
    OFFSET -2.69724 7.43032 -0.144315
    CHANNELS 3 Zrotation Xrotation Yrotation
    JOINT Spine
    {
      OFFSET -0.0310711 10.7595 1.96963
      CHANNELS 3 Zrotation Xrotation Yrotation
      JOINT Spine1
      {
        OFFSET 19.9056 3.91189 0.764692
        CHANNELS 3 Zrotation Xrotation Yrotation
        JOINT Neck
        {
          OFFSET 25.9749 7.03908 -0.130764
          CHANNELS 3 Zrotation Xrotation Yrotation
          JOINT Head
          {
            OFFSET 9.52751 0.295786 -0.907742
            CHANNELS 3 Zrotation Xrotation Yrotation
            End Site
            {
              OFFSET 16.4037 0.713936 2.7358
            }
          }
        }
        JOINT LeftShoulder
        {
          OFFSET 17.7449 4.33886 11.7777
          CHANNELS 3 Zrotation Xrotation Yrotation
          JOINT LeftArm
          {
            OFFSET 0.911315 1.27913 9.80584
            CHANNELS 3 Zrotation Xrotation Yrotation
            JOINT LeftForeArm
            {
              OFFSET 28.6126 1.18197 -3.53199
              CHANNELS 3 Zrotation Xrotation Yrotation
              JOINT LeftHand
              {
                OFFSET 27.5088 0.0218783 0.327423
                CHANNELS 3 Zrotation Xrotation Yrotation
                End Site
                {
                  OFFSET 18.6038 -0.000155887 0.382096
                }
              }
            }
          }
        }
        JOINT RightShoulder
        {
          OFFSET 17.1009 2.89543 -12.2328
          CHANNELS 3 Zrotation Xrotation Yrotation
          JOINT RightArm
          {
            OFFSET 1.4228 0.178766 -10.211
            CHANNELS 3 Zrotation Xrotation Yrotation
            JOINT RightForeArm
            {
              OFFSET 28.733 1.87905 2.64907
              CHANNELS 3 Zrotation Xrotation Yrotation
              JOINT RightHand
              {
                OFFSET 27.4588 0.290562 -0.101845
                CHANNELS 3 Zrotation Xrotation Yrotation
                End Site
                {
                  OFFSET 17.8396 -0.255518 -0.000602873
                }
              }
            }
          }
        }
      }
    }
  }
  JOINT LeftUpLeg
  {
    OFFSET -5.61296 -2.22332 -10.2353
    CHANNELS 3 Zrotation Xrotation Yrotation
    JOINT LeftLeg
    {
      OFFSET 2.56703 -44.7417 -7.93097
      CHANNELS 3 Zrotation Xrotation Yrotation
      JOINT LeftFoot
      {
        OFFSET 3.16933 -46.5642 -3.96578
        CHANNELS 3 Zrotation Xrotation Yrotation
        JOINT LeftToeBase
        {
          OFFSET 0.346054 -6.02161 12.8035
          CHANNELS 3 Zrotation Xrotation Yrotation
          End Site
          {
            OFFSET 0.134235 -1.35082 5.13018
          }
        }
      }
    }
  }
  JOINT RightUpLeg
  {
    OFFSET -5.7928 -1.72406 10.6446
    CHANNELS 3 Zrotation Xrotation Yrotation
    JOINT RightLeg
    {
      OFFSET -2.57161 -44.7178 -7.85259
      CHANNELS 3 Zrotation Xrotation Yrotation
      JOINT RightFoot
      {
        OFFSET -3.10148 -46.5936 -4.03391
        CHANNELS 3 Zrotation Xrotation Yrotation
        JOINT RightToeBase
        {
          OFFSET -0.0828122 -6.13587 12.8035
          CHANNELS 3 Zrotation Xrotation Yrotation
          End Site
          {
            OFFSET -0.131328 -1.35082 5.13018
          }
        }
      }
    }
  }
}
MOTION
Frames: 7
Frame Time: 0.03333333333333333
0.0000 93.1000 0.0000 55.2168 -17.6863 -7.0254 -71.4735 0.5002 88.2236 101.1375 70.0757 -17.9285 -0.2767 21.0246 -2.2214 -154.6844 14.5705 170.8692 -151.5872 55.1010 -164.1643 0.2085 -13.9200 -36.0039 -99.0442 37.2683 -60.8043 8.7097 1.6417 -77.4013 -0.0383 0.1671 -0.1332 -2.0166 4.9079 44.2185 -59.6685 -44.9917 73.2341 11.7505 -7.8377 59.6494 -0.0332 -0.2351 -0.0843 -32.1806 -5.7282 99.9902 -10.4064 64.7104 -18.1227 2.6998 -18.3515 -2.2955 4.5839 -14.8623 18.9464 -28.8492 2.9553 92.1128 154.2701 80.9102 -160.2268 -8.0544 5.5003 0.9810 2.0684 -9.1564 -13.8690 
0.0000 93.1000 0.0000 53.9772 -14.9712 -5.1295 -71.3943 0.5123 88.0809 104.3438 67.9205 -19.3531 -0.8863 18.8690 -1.6871 -155.5264 14.3282 169.4445 -152.5103 54.1920 -163.7644 0.0709 -14.1681 -33.8608 -101.3629 36.0110 -65.5769 12.9112 0.3402 -87.1136 0.1652 0.0536 -0.4081 -2.0127 5.1904 44.9253 -55.9002 -44.8954 70.3418 14.0748 -9.3416 57.9077 -0.0836 -0.4632 -0.0694 -36.8801 -7.0227 98.6361 -9.0141 61.7791 -19.3067 2.9819 -20.0950 -2.4056 5.6570 -14.6564 19.1175 -17.0784 6.6106 91.9615 160.6529 76.2078 -165.3992 -8.9478 5.6737 1.1778 1.6506 -14.8720 -18.8279 
0.0000 93.1000 0.0000 54.8578 -12.1943 -1.7228 -71.4478 0.3130 88.1805 105.3913 65.0178 -19.8627 -1.5646 16.0074 -0.1721 -155.6294 13.3011 171.1924 -150.8167 53.1692 -164.9986 0.0575 -13.3379 -31.2877 -104.2611 36.7049 -65.6684 15.5921 -1.9329 -95.2523 0.0639 0.0303 -0.3883 -1.9885 5.8365 44.7598 -54.7914 -46.1463 65.1223 16.5421 -10.7192 59.6873 -0.0748 -0.4695 -0.3990 -44.8326 -6.8860 94.7664 -7.1353 56.1617 -19.0420 2.3034 -16.9281 -2.0736 6.7588 -15.2146 9.6889 -8.0881 7.9992 88.9373 154.5080 80.3534 -158.1657 -9.6703 3.7306 1.6043 1.6942 -16.1321 -18.0529 
0.0000 93.1000 0.0000 54.6057 -9.8840 1.4242 -71.4468 0.0420 88.2016 107.4346 63.8065 -20.7761 -1.9705 13.8676 2.0804 -155.9201 12.0328 173.2318 -147.8018 51.9926 -169.5866 -0.2521 -13.1426 -30.2009 -104.9834 38.0909 -63.7472 17.3256 -5.3300 -102.9362 0.0560 -0.2071 0.0026 -2.0649 6.2064 45.2679 -55.5002 -47.2189 58.8227 16.1642 -9.8482 61.1049 -0.3564 0.0098 -0.3183 -54.2407 -6.0679 91.6634 -4.7663 46.6708 -18.1321 -1.1553 -5.8949 -0.4495 8.3314 -18.8484 -3.6533 -4.0130 9.7508 87.1416 65.3925 85.8857 -65.5538 -7.9365 5.5207 1.0184 2.4416 -22.7534 -20.5000 
0.0000 93.1000 0.0000 56.7151 -9.0387 2.2293 -71.3168 0.0572 88.1940 108.4473 63.3389 -19.6714 -2.5310 12.9019 3.8393 -156.3085 12.2075 173.2038 -149.1287 52.0309 -166.9035 -0.1331 -13.1716 -28.8877 -102.3186 40.0258 -62.8559 18.1197 -6.8373 -109.0725 0.1071 -0.1710 -0.1222 -1.9406 6.0147 44.0735 -59.7510 -47.1946 52.1662 14.7995 -8.2734 62.6774 -0.1191 0.0260 -0.1102 -62.5181 -5.1426 90.8837 -3.9115 37.7399 -20.2202 -6.9575 8.9270 2.0831 7.6168 -17.4981 -14.4939 -4.6025 9.7419 86.0945 7.6291 70.9249 -8.5244 -3.6742 4.1461 0.0723 1.5364 -18.0758 -16.2738 
0.0000 93.1000 0.0000 53.6186 -8.0967 1.4832 -71.2161 0.2553 88.1207 100.3342 63.9479 -12.8999 -1.8859 12.9776 4.5922 -158.1360 12.3092 171.7433 -148.7426 51.2101 -174.2210 -0.1602 -13.2167 -27.9663 -97.2475 42.1191 -63.7871 19.8043 -8.6658 -110.0615 -0.2260 0.1379 -0.3409 -1.9446 5.9991 43.8732 -63.7165 -46.1597 48.2349 15.8714 -7.9559 64.4531 0.2054 -0.5628 -0.2198 -66.0717 -5.7871 91.5999 -3.0820 32.8988 -25.1284 -11.2742 16.6151 3.8857 1.8354 -0.3426 -9.0692 -5.1478 9.2004 86.1781 2.8679 52.1177 2.6591 -2.1606 3.9146 -0.1922 1.5818 -16.5819 -23.0566 
0.0000 93.1000 0.0000 52.4570 -7.1377 -0.6606 -71.2090 -0.1328 88.0850 93.2706 64.2413 -6.2871 -0.5868 13.0061 4.5654 -160.1214 13.0592 171.9294 -148.0790 51.1460 -175.4560 -0.4241 -13.6368 -27.1325 -90.2986 44.8038 -65.8587 17.0851 -7.2055 -108.9597 -0.0678 0.0902 -0.1723 -2.3048 5.9444 42.1771 -66.8585 -46.2261 48.9969 17.7186 -8.6397 65.8368 0.1246 -0.6897 -0.2406 -66.0205 -7.2223 90.8640 -4.1253 35.9290 -18.8978 -9.8399 12.9675 3.2923 -1.7693 3.9989 -2.8614 -7.9026 8.1345 85.0126 1.8642 37.8919 9.8318 -2.3359 9.5812 -1.1363 1.3622 -26.0848 -28.9261 
